<?xml version="1.0" encoding="UTF-8"?>
<svg width="800" height="600" viewBox="0 0 800 600" fill="none" xmlns="http://www.w3.org/2000/svg">
  <!-- Person -->
  <path d="M400 200 C 380 200, 350 220, 350 280 C 350 340, 380 360, 400 360 C 420 360, 450 340, 450 280 C 450 220, 420 200, 400 200" fill="#FF5722" stroke="none"/>
  <path d="M375 250 C 385 250, 395 260, 395 270 C 395 280, 385 290, 375 290 C 365 290, 355 280, 355 270 C 355 260, 365 250, 375 250" fill="white" stroke="none"/>
  
  <!-- Flying Papers -->
  <g transform="rotate(-15, 300, 200)">
    <rect x="280" y="180" width="40" height="50" fill="white" stroke="#333" stroke-width="2"/>
    <line x1="290" y1="190" x2="310" y2="190" stroke="#333" stroke-width="2"/>
    <line x1="290" y1="200" x2="310" y2="200" stroke="#333" stroke-width="2"/>
  </g>
  <g transform="rotate(15, 500, 250)">
    <rect x="480" y="230" width="40" height="50" fill="white" stroke="#333" stroke-width="2"/>
    <line x1="490" y1="240" x2="510" y2="240" stroke="#333" stroke-width="2"/>
    <line x1="490" y1="250" x2="510" y2="250" stroke="#333" stroke-width="2"/>
  </g>
  <g transform="rotate(-30, 350, 300)">
    <rect x="330" y="280" width="40" height="50" fill="white" stroke="#333" stroke-width="2"/>
    <line x1="340" y1="290" x2="360" y2="290" stroke="#333" stroke-width="2"/>
    <line x1="340" y1="300" x2="360" y2="300" stroke="#333" stroke-width="2"/>
  </g>
</svg> 